#!OML:ASF F:\VICON\USERDATA\INSTALL\rory3\rory3.ASF
:FULLY-SPECIFIED
:DEGREES
46
root 0.894564 17.8036 -14.6583 5.11444 -2.79999 -0.172529
lowerback 0.933365 -0.609579 -1.81698
upperback -3.81954 -0.765274 2.93686
thorax -4.40538 -0.258826 4.10079
lowerneck -14.6968 -4.44053 -10.8542
upperneck 25.4035 -4.9667 5.4685
head 11.0713 -2.67147 3.12627
rclavicle 3.2054e-015 -1.43125e-014
rhumerus -34.9767 -8.06099 -82.3007
rradius 28.346
rwrist 12.4837
rhand -5.65229 7.92875
rfingers 7.12502
rthumb 20.1666 -21.0445
lclavicle 3.2054e-015 -1.43125e-014
lhumerus -32.8576 8.96607 89.9901
lradius 23.9295
lwrist -13.4459
lhand -13.0491 28.049
lfingers 7.12502
lthumb 13.0459 57.621
rfemur -6.1892 6.52988 20.5526
rtibia 18.0983
rfoot -11.493 -7.91906
rtoes 2.67343
lfemur -5.9646 -6.03275 -19.3288
ltibia 18.1028
lfoot -12.8284 8.75563
ltoes -3.35498
47
root 0.895398 17.8034 -14.6625 5.08451 -2.76857 -0.170094
lowerback 1.00096 -0.578569 -1.75403
upperback -3.73912 -0.72534 2.87227
thorax -4.36415 -0.244152 3.99556
lowerneck -14.7777 -4.50159 -10.7858
upperneck 25.3261 -5.07636 5.52871
head 11.0677 -2.70487 3.11878
rclavicle -6.70898e-016 3.18055e-015
rhumerus -34.8651 -8.28994 -82.3336
rradius 28.3697
rwrist 12.5767
rhand -5.85657 8.39693
rfingers 7.12502
rthumb 19.9702 -20.5969
lclavicle -6.70898e-016 3.18055e-015
lhumerus -32.6575 8.79911 89.9803
lradius 23.8193
lwrist -13.3807
lhand -13.3458 27.2462
lfingers 7.12502
lthumb 12.7598 56.8363
rfemur -6.16639 6.51899 20.5587
rtibia 18.0972
rfoot -11.4551 -7.96139
rtoes 2.72964
lfemur -5.98954 -6.01867 -19.32
ltibia 18.175
lfoot -12.8633 8.68432
ltoes -2.92494
48
root 0.892605 17.8077 -14.673 5.05442 -2.83951 -0.297512
lowerback 1.14167 -0.508858 -1.64515
upperback -3.70346 -0.628701 2.88627
thorax -4.41555 -0.19907 3.9458
lowerneck -14.6542 -4.51098 -10.8384
upperneck 25.1557 -5.11252 5.63447
head 10.9871 -2.71303 3.16037
rclavicle 3.23025e-015 -8.74653e-015
rhumerus -34.8338 -8.44207 -82.3028
rradius 28.3735
rwrist 12.6343
rhand -5.75702 8.56115
rfingers 7.12502
rthumb 20.0659 -20.4227
lclavicle 3.23025e-015 -8.74653e-015
lhumerus -32.5566 8.69182 89.9825
lradius 23.7041
lwrist -13.4536
lhand -13.349 26.9174
lfingers 7.12502
lthumb 12.7568 56.5077
rfemur -6.18248 6.68842 20.7183
rtibia 18.0816
rfoot -11.3059 -8.03045
rtoes 2.49686
lfemur -5.95884 -5.92644 -19.1626
ltibia 18.2576
lfoot -13.0258 8.61492
ltoes -2.3888
49
root 0.893125 17.8065 -14.6847 4.98932 -2.85667 -0.332337
lowerback 1.3014 -0.463174 -1.55156
upperback -3.59445 -0.568165 2.83088
thorax -4.39825 -0.174844 3.83273
lowerneck -14.8311 -4.55356 -10.7484
upperneck 25.1182 -5.17787 5.64665
head 11.0113 -2.72898 3.13741
rclavicle -3.45388e-015 7.15625e-015
rhumerus -34.6277 -8.4854 -82.4173
rradius 28.3527
rwrist 12.5217
rhand -5.65716 8.1822
rfingers 7.12502
rthumb 20.1619 -20.7915
lclavicle -3.45388e-015 7.15625e-015
lhumerus -32.2983 8.48142 89.9736
lradius 23.593
lwrist -13.5217
lhand -13.1845 26.9314
lfingers 7.12502
lthumb 12.9154 56.5117
rfemur -6.12573 6.64299 20.758
rtibia 17.9998
rfoot -11.2022 -7.97296
rtoes 2.30134
lfemur -5.95099 -5.85287 -19.1259
ltibia 18.3591
lfoot -13.171 8.52558
ltoes -2.48254
50
root 0.895894 17.8048 -14.6891 4.94405 -2.88722 -0.304096
lowerback 1.3434 -0.435572 -1.48719
upperback -3.45128 -0.533197 2.77116
thorax -4.27606 -0.164369 3.73065
lowerneck -14.9799 -4.59941 -10.7132
upperneck 24.998 -5.2359 5.66795
head 11.0005 -2.74501 3.12707
rclavicle 1.73937e-016 -2.46493e-014
rhumerus -34.4391 -8.50609 -82.5147
rradius 28.3712
rwrist 12.5166
rhand -5.58983 8.05335
rfingers 7.12502
rthumb 20.2266 -20.9136
lclavicle 1.73937e-016 -2.46493e-014
lhumerus -32.0401 8.41832 89.9565
lradius 23.5724
lwrist -13.6402
lhand -13.1185 26.9952
lfingers 7.12502
lthumb 12.9789 56.5715
rfemur -6.06641 6.65269 20.7135
rtibia 17.9217
rfoot -11.1521 -7.99857
rtoes 2.13639
lfemur -5.95226 -5.91406 -19.1758
ltibia 18.4246
lfoot -13.2322 8.58327
ltoes -2.71915
51
root 0.898136 17.8087 -14.6933 4.9584 -2.90861 -0.313889
lowerback 1.37242 -0.451851 -1.47141
upperback -3.39665 -0.553741 2.81312
thorax -4.23389 -0.175676 3.76609
lowerneck -15.045 -4.57455 -10.8115
upperneck 24.9001 -5.17266 5.70733
head 10.975 -2.71824 3.1651
rclavicle -4.8081e-015 4.53229e-014
rhumerus -34.3589 -8.35968 -82.545
rradius 28.4034
rwrist 12.5771
rhand -5.72183 8.16451
rfingers 7.12502
rthumb 20.0997 -20.8158
lclavicle -4.8081e-015 4.53229e-014
lhumerus -31.9758 8.50889 90.0218
lradius 23.7136
lwrist -13.4905
lhand -12.9577 27.5201
lfingers 7.12502
lthumb 13.1339 57.0865
rfemur -6.10321 6.72588 20.7057
rtibia 17.92
rfoot -11.1712 -8.03145
rtoes 2.28416
lfemur -5.97545 -5.8952 -19.1676
ltibia 18.4514
lfoot -13.1933 8.58028
ltoes -2.15467
52
root 0.900015 17.8108 -14.7002 4.93475 -2.83414 -0.283169
lowerback 1.41748 -0.495597 -1.48314
upperback -3.30564 -0.61312 2.84018
thorax -4.15982 -0.206644 3.8031
lowerneck -15.2229 -4.55353 -10.9091
upperneck 24.8933 -5.10473 5.74581
head 11.0052 -2.68874 3.20345
rclavicle -1.13059e-015 -7.95139e-015
rhumerus -34.3123 -8.04153 -82.6563
rradius 28.6507
rwrist 12.4302
rhand -5.77433 7.96343
rfingers 7.12502
rthumb 20.0493 -21.0222
lclavicle -1.13059e-015 -7.95139e-015
lhumerus -31.8785 8.60583 90.0806
lradius 23.8006
lwrist -13.3603
lhand -12.8927 27.606
lfingers 7.12502
lthumb 13.1966 57.1683
rfemur -6.10132 6.68358 20.6701
rtibia 17.966
rfoot -11.2206 -8.04572
rtoes 2.27972
lfemur -5.97559 -5.93076 -19.2074
ltibia 18.4801
lfoot -13.1428 8.56757
ltoes -2.15429
53
root 0.900416 17.8075 -14.7096 4.88891 -2.72884 -0.312357
lowerback 1.49844 -0.471365 -1.34532
upperback -3.0977 -0.582073 2.74744
thorax -3.99311 -0.202051 3.625
lowerneck -15.8637 -4.65893 -10.8011
upperneck 25.056 -5.23611 5.82213
head 11.2035 -2.72017 3.18882
rclavicle 1.59028e-015 1.51076e-014
rhumerus -34.0038 -8.2039 -82.8364
rradius 28.7752
rwrist 12.3418
rhand -5.87519 8.03893
rfingers 7.12502
rthumb 19.9523 -20.9568
lclavicle 1.59028e-015 1.51076e-014
lhumerus -31.4735 8.36259 90.0703
lradius 23.7275
lwrist -13.449
lhand -12.9569 27.2341
lfingers 7.12502
lthumb 13.1348 56.8004
rfemur -6.09762 6.60827 20.7183
rtibia 18.038
rfoot -11.2489 -8.07514
rtoes 2.21184
lfemur -6.00403 -5.90321 -19.1543
ltibia 18.5029
lfoot -13.1439 8.41737
ltoes -2.50127
54
root 0.899196 17.8035 -14.7209 4.90539 -2.74674 -0.366297
lowerback 1.60828 -0.405765 -1.25984
upperback -2.9878 -0.494773 2.6899
thorax -3.94824 -0.163907 3.51251
lowerneck -16.2449 -4.77743 -10.6653
upperneck 25.1044 -5.39493 5.80043
head 11.3073 -2.77555 3.12961
rclavicle -1.59463e-014 7.95139e-016
rhumerus -33.6884 -8.42646 -82.9109
rradius 28.6446
rwrist 12.3209
rhand -6.03031 8.50931
rfingers 7.12502
rthumb 19.8032 -20.5018
lclavicle -1.59463e-014 7.95139e-016
lhumerus -31.189 8.03368 90.1176
lradius 23.7127
lwrist -13.4588
lhand -13.0832 27.3004
lfingers 7.12502
lthumb 13.013 56.8745
rfemur -6.21266 6.71126 20.7935
rtibia 18.1298
rfoot -11.2249 -8.17687
rtoes 1.91469
lfemur -6.12766 -5.76968 -19.0648
ltibia 18.5185
lfoot -13.0949 8.29604
ltoes -2.87188
55
root 0.89938 17.803 -14.7289 4.90232 -2.81277 -0.394618
lowerback 1.72725 -0.369419 -1.2347
upperback -2.99142 -0.444919 2.69402
thorax -4.02313 -0.138656 3.50171
lowerneck -16.0515 -4.77 -10.6682
upperneck 24.9697 -5.39933 5.79773
head 11.2186 -2.77962 3.12882
rclavicle 4.47266e-015 1.51076e-014
rhumerus -33.6433 -8.501 -82.9049
rradius 28.5444
rwrist 12.3632
rhand -5.92389 8.40878
rfingers 7.12502
rthumb 19.9055 -20.5918
lclavicle 4.47266e-015 1.51076e-014
lhumerus -31.2021 7.84366 90.1856
lradius 23.689
lwrist -13.5905
lhand -13.2218 27.3404
lfingers 7.12502
lthumb 12.8794 56.923
rfemur -6.29256 6.90122 20.8306
rtibia 18.2112
rfoot -11.1864 -8.32652
rtoes 1.89788
lfemur -6.21505 -5.75452 -19.0361
ltibia 18.5255
lfoot -12.914 8.42585
ltoes -3.57721
56
root 0.899436 17.807 -14.7356 4.89489 -2.83945 -0.384058
lowerback 1.87968 -0.344262 -1.23216
upperback -3.04386 -0.410509 2.68533
thorax -4.16671 -0.119175 3.49207
lowerneck -15.8515 -4.72267 -10.6216
upperneck 24.923 -5.3469 5.72969
head 11.153 -2.76237 3.10563
rclavicle -1.73378e-014 -8.74653e-015
rhumerus -33.8536 -8.37432 -82.9341
rradius 28.6498
rwrist 12.2289
rhand -5.88022 8.31265
rfingers 7.12502
rthumb 19.9475 -20.6836
lclavicle -1.73378e-014 -8.74653e-015
lhumerus -31.3507 7.78281 90.1939
lradius 23.671
lwrist -13.701
lhand -13.3883 26.7198
lfingers 7.12502
lthumb 12.7189 56.3125
rfemur -6.32916 7.07742 20.8144
rtibia 18.2354
rfoot -11.139 -8.41347
rtoes 2.67095
lfemur -6.27861 -5.625 -19.0448
ltibia 18.5468
lfoot -12.7979 8.37787
ltoes -4.03801
57
root 0.898361 17.811 -14.7435 4.89152 -2.92424 -0.417528
lowerback 2.01979 -0.305548 -1.22476
upperback -3.04783 -0.357432 2.70581
thorax -4.25417 -0.0913376 3.50808
lowerneck -15.7782 -4.7122 -10.5613
upperneck 24.9228 -5.31559 5.58141
head 11.1296 -2.76135 3.0462
rclavicle -8.99501e-015 -7.95139e-015
rhumerus -34.0058 -8.14318 -83.0018
rradius 28.8393
rwrist 11.9922
rhand -5.89478 8.23153
rfingers 7.12502
rthumb 19.9335 -20.7661
lclavicle -8.99501e-015 -7.95139e-015
lhumerus -31.4221 7.64457 90.2581
lradius 23.763
lwrist -13.5415
lhand -13.5917 26.0755
lfingers 7.12502
lthumb 12.5228 55.6802
rfemur -6.37104 7.25735 20.8315
rtibia 18.2276
rfoot -11.1553 -8.3925
rtoes 3.47481
lfemur -6.27876 -5.53856 -18.9979
ltibia 18.538
lfoot -12.8356 8.32343
ltoes -3.6526
